<?xml version="1.0" encoding="UTF-8"?>
<svg id="Layer_2" data-name="Layer 2" xmlns="http://www.w3.org/2000/svg" viewBox="0 0 164 50.71">
  <defs>
    <style>
      .cls-1 {
        fill: #caedff;
      }

      .cls-1, .cls-2, .cls-3, .cls-4 {
        stroke-width: 0px;
      }

      .cls-2 {
        fill: #d8b4f8;
      }

      .cls-3 {
        fill: #fbf0b2;
      }

      .cls-4 {
        fill: #ffc7ea;
      }
    </style>
  </defs>
  <g id="Layer_1-2" data-name="Layer 1">
    <g>
      <path class="cls-1" d="m44.24,8.44C39.59,3.26,32.86,0,25.36,0,11.35,0,0,11.35,0,25.36s11.35,25.36,25.36,25.36c7.5,0,14.24-3.26,18.88-8.44-4.02-4.49-6.47-10.42-6.47-16.92s2.45-12.43,6.47-16.92Z"/>
      <path class="cls-4" d="m82,8.44C77.36,3.26,70.62,0,63.12,0s-14.24,3.26-18.88,8.44c4.02,4.49,6.47,10.42,6.47,16.92s-2.45,12.43-6.47,16.92c4.64,5.18,11.38,8.44,18.88,8.44s14.24-3.26,18.88-8.44c-4.02-4.49-6.47-10.42-6.47-16.92s2.45-12.43,6.47-16.92Z"/>
      <path class="cls-3" d="m119.76,8.44c-4.64-5.18-11.38-8.44-18.88-8.44s-14.24,3.26-18.88,8.44c4.02,4.49,6.47,10.42,6.47,16.92s-2.45,12.43-6.47,16.92c4.64,5.18,11.38,8.44,18.88,8.44s14.24-3.26,18.88-8.44c-4.02-4.49-6.47-10.42-6.47-16.92s2.45-12.43,6.47-16.92Z"/>
      <path class="cls-2" d="m138.64,0c-7.5,0-14.24,3.26-18.88,8.44,4.02,4.49,6.47,10.42,6.47,16.92s-2.45,12.43-6.47,16.92c4.64,5.18,11.38,8.44,18.88,8.44,14,0,25.36-11.35,25.36-25.36S152.65,0,138.64,0Z"/>
    </g>
  </g>
</svg>